<svg width="114" height="53" viewBox="0 0 114 53" fill="none" xmlns="http://www.w3.org/2000/svg">
<path fill-rule="evenodd" clip-rule="evenodd" d="M6.48688 52.0251H0V16.4882H6.48688V37.0545L14.1583 28.3339H21.9764L12.5902 38.9949L24.1538 52.0251H16.1439L6.4756 41.1271V52.0251H6.48688ZM34.8035 27.8149C41.674 27.8149 47.2696 33.2639 47.2696 40.1795C47.2696 47.0951 41.674 52.544 34.8035 52.544C27.9331 52.544 22.3374 47.0951 22.3374 40.1795C22.3374 33.2639 27.9331 27.8149 34.8035 27.8149ZM34.8035 33.8731C31.3965 33.8731 28.8807 36.5243 28.8807 40.1795C28.8807 43.8234 31.3965 46.4858 34.8035 46.4858C38.2106 46.4858 40.6812 43.8347 40.6812 40.1795C40.6699 36.5355 38.2106 33.8731 34.8035 33.8731ZM49.4808 40.1795C49.4808 46.9033 54.3093 52.544 60.6157 52.544C63.8873 52.544 66.3918 50.8856 67.441 49.3739V52.0251H73.9279V28.3339H67.441V30.985C66.4031 29.4733 63.8873 27.8149 60.6157 27.8149C54.3093 27.8149 49.4808 33.4557 49.4808 40.1795ZM67.96 40.1795C67.96 43.8798 65.5457 46.6212 61.9921 46.6212C58.4384 46.6212 56.0241 43.8685 56.0241 40.1795C56.0241 36.4904 58.4384 33.7377 61.9921 33.7377C65.5345 33.7377 67.96 36.4791 67.96 40.1795ZM100.688 52.544C94.3813 52.544 89.5528 46.9033 89.5528 40.1795C89.5528 33.4557 94.3813 27.8149 100.688 27.8149C103.959 27.8149 106.464 29.4733 107.513 30.985V28.3339H114V52.0251H107.513V49.3739C106.464 50.8856 103.959 52.544 100.688 52.544ZM102.064 46.6212C105.618 46.6212 108.032 43.8685 108.032 40.1795C108.032 36.4904 105.618 33.7377 102.064 33.7377C98.5104 33.7377 96.0961 36.4904 96.0961 40.1795C96.0961 43.8685 98.5104 46.6212 102.064 46.6212Z" fill="black"/>
<path fill-rule="evenodd" clip-rule="evenodd" d="M65.5162 2.19432L65.5346 2.20603C66.6628 2.92805 69.0093 4.46234 71.1077 7.45195C73.3866 10.701 74.1763 13.9501 74.4696 15.9357C72.6533 13.5891 70.3293 11.0508 67.3735 8.63651C66.55 7.95962 62.1502 4.39465 61.2589 3.71776C61.1447 3.63054 61.032 3.54504 60.9214 3.46111L60.9211 3.46086C59.644 2.4919 58.6429 1.73239 58.7883 0.953782C58.856 0.592772 59.1493 0.367142 59.2282 0.310734C60.742 -0.844204 64.4959 1.54493 65.5162 2.19432ZM68.1237 14.7627L68.1238 14.7628C68.2535 14.8502 68.3832 14.9376 68.5129 15.0222C69.6862 15.8796 71.4348 17.4026 72.766 19.783C73.4317 20.9563 73.8378 22.0731 74.1085 23.0095C70.6226 20.5388 67.6893 18.8805 65.952 18.0682C64.068 17.1995 62.4209 16.6693 62.4209 16.6693L62.278 16.6244C61.7735 16.4658 61.3766 16.341 60.8189 16.2067C60.5968 16.1528 60.3461 16.0962 60.0692 16.0336C59.3614 15.8738 58.4819 15.6751 57.4683 15.3832C57.1185 15.2817 56.6673 15.1463 56.3401 14.7401L56.3364 14.7353C56.2507 14.6254 55.913 14.1917 56.013 13.7361C56.1145 13.251 56.6334 12.9802 57.3216 12.732C57.9367 12.5065 58.5891 12.3648 58.8555 12.3069L58.9236 12.292L58.9574 12.2808C60.0179 12.1341 61.8229 12.0326 63.9326 12.6418C65.6587 13.1382 66.9335 13.9279 67.7345 14.5032C67.8642 14.5878 67.994 14.6753 68.1237 14.7627ZM99.7627 3.01819C99.7853 2.88281 99.8417 2.49924 99.6273 2.22848C99.3904 1.93516 98.9505 1.93516 98.8038 1.93516C98.1156 1.93516 93.3097 2.9505 90.1734 7.57593C86.9808 12.2803 87.6351 17.6278 87.951 19.4554C88.2781 18.6431 88.7294 17.5827 89.3273 16.3755L89.3293 16.3716L89.3293 16.3715C90.3552 14.2858 91.359 12.2453 92.8584 10.3963C93.9477 9.04747 95.4159 7.67565 96.719 6.45806C98.3042 4.97695 99.6451 3.72402 99.7627 3.01819ZM96.0736 13.6457C99.6385 10.5319 102.73 9.84377 103.959 9.64071C104.76 9.50533 107.513 9.06535 108.077 10.1484C108.122 10.2386 108.246 10.5094 108.122 11.0058C107.758 12.4706 105.916 13.2695 103.061 14.5075C102.2 14.8809 101.246 15.2942 100.214 15.7779C98.6909 16.4886 96.9084 17.3347 94.9905 18.5644C92.5763 20.11 90.8164 21.7345 89.6769 22.8852C90.6697 20.3694 92.5312 16.7481 96.0736 13.6457Z" fill="#20DEA6"/>
<path d="M84.7344 35.5109C84.8686 35.3759 84.9599 35.2043 84.9968 35.0176C85.0337 34.8309 85.0146 34.6375 84.9419 34.4616C84.8692 34.2857 84.7461 34.1353 84.5881 34.0292C84.4301 33.9231 84.2443 33.866 84.054 33.8652H78.263C78.0714 33.8544 77.8808 33.901 77.7158 33.999C77.5507 34.097 77.4187 34.242 77.3364 34.4154C77.2578 34.5809 77.2323 34.7667 77.2634 34.9472C77.2945 35.1278 77.3807 35.2944 77.5102 35.424C78.1954 36.6932 78.8759 42.3542 78.263 43.5365C78.1288 43.6715 78.8538 44.0924 78.263 44.0924C78.2261 44.2791 78.1903 44.4724 78.263 44.6483C78.3357 44.8242 78.6491 45.0981 78.8071 45.2042C78.965 45.3103 78.0727 45.4465 78.263 45.4473H84.054C84.2456 45.4581 83.889 45.3586 84.054 45.2606C84.2191 45.1626 83.728 44.8218 83.8102 44.6483C82.8836 44.6021 83.8413 44.4755 83.8102 44.2949C83.8102 44.2949 84.1835 42.9288 84.054 42.7992C83.3687 41.53 84.1216 36.6932 84.7344 35.5109Z" fill="black"/>
<path d="M84.3726 45.2204C84.4037 45.7496 84.5438 46.1699 84.7928 46.4812C85.0419 46.7925 85.3376 47.026 85.6801 47.1817C86.0536 47.3062 86.4583 47.384 86.8942 47.4151C87.3611 47.4151 87.8437 47.384 88.3418 47.3217V52.1315C87.9059 52.2248 87.5168 52.2871 87.1744 52.3182C86.863 52.3805 86.5829 52.4272 86.3338 52.4583C86.0536 52.4895 85.8202 52.4895 85.6334 52.4583C84.4504 52.4583 83.392 52.4116 82.458 52.3182C81.5241 52.2248 80.7303 51.9291 80.0765 51.431C79.4228 50.9018 78.9247 50.1235 78.5823 49.0962C78.2398 48.0378 78.0686 46.5435 78.0686 44.6134V34.9478H84.3726V45.2204Z" fill="black"/>
<path d="M84.6846 21.3653C84.8179 21.2095 84.9085 21.0115 84.9452 20.7961C84.9819 20.5806 84.9629 20.3574 84.8906 20.1545C84.8184 19.9515 84.6962 19.7779 84.5392 19.6555C84.3823 19.5331 84.1977 19.4672 84.0087 19.4663H78.2563C78.0659 19.4538 77.8766 19.5075 77.7127 19.6206C77.5487 19.7337 77.4176 19.901 77.3359 20.1012C77.2577 20.2921 77.2324 20.5065 77.2633 20.7149C77.2942 20.9232 77.3798 21.1154 77.5084 21.265C78.1891 22.7296 78.1891 29.4313 77.5803 30.7957C77.4471 30.9514 77.3564 31.1494 77.3197 31.3649C77.2831 31.5803 77.3021 31.8035 77.3743 32.0064C77.4465 32.2094 77.5688 32.383 77.7257 32.5054C77.8826 32.6279 78.0672 32.6937 78.2563 32.6946H84.0087C84.1991 32.7071 84.3883 32.6534 84.5522 32.5403C84.7162 32.4272 84.8474 32.2599 84.9291 32.0598C85.0072 31.8688 85.0326 31.6544 85.0017 31.446C84.9708 31.2377 84.8851 31.0455 84.7565 30.8959C84.0758 29.4313 84.0758 22.7296 84.6846 21.3653Z" fill="black"/>
<path d="M84.6846 6.96586C84.8179 6.81012 84.9085 6.61209 84.9452 6.39666C84.9819 6.18123 84.9629 5.95802 84.8906 5.75508C84.8184 5.55215 84.6962 5.37855 84.5392 5.2561C84.3823 5.13366 84.1977 5.06784 84.0087 5.06692H78.2563C78.0659 5.05443 77.8766 5.10815 77.7127 5.22123C77.5487 5.33432 77.4176 5.50162 77.3359 5.70176C77.2577 5.89273 77.2324 6.1071 77.2633 6.31548C77.2942 6.52385 77.3798 6.71602 77.5084 6.86562C78.1891 8.3302 78.1891 15.0319 77.5803 16.3963C77.4471 16.552 77.3564 16.75 77.3197 16.9655C77.2831 17.1809 77.3021 17.4041 77.3743 17.607C77.4465 17.81 77.5688 17.9836 77.7257 18.106C77.8826 18.2285 78.0672 18.2943 78.2563 18.2952H84.0087C84.1991 18.3077 84.3883 18.254 84.5522 18.1409C84.7162 18.0278 84.8474 17.8605 84.9291 17.6604C85.0072 17.4694 85.0326 17.255 85.0017 17.0466C84.9708 16.8383 84.8851 16.6461 84.7565 16.4965C84.0758 15.0319 84.0758 8.3302 84.6846 6.96586Z" fill="black"/>
</svg>
